<?xml version="1.0" encoding="UTF-8" standalone="no"?>
<!-- Created with Inkscape (http://www.inkscape.org/) -->
<svg
   xmlns:dc="http://purl.org/dc/elements/1.1/"
   xmlns:cc="http://web.resource.org/cc/"
   xmlns:rdf="http://www.w3.org/1999/02/22-rdf-syntax-ns#"
   xmlns:svg="http://www.w3.org/2000/svg"
   xmlns="http://www.w3.org/2000/svg"
   xmlns:xlink="&amp;#38;#38;#38;#38;#38;#38;#38;#38;ns_xlink;"
   xmlns:sodipodi="http://inkscape.sourceforge.net/DTD/sodipodi-0.dtd"
   xmlns:inkscape="http://www.inkscape.org/namespaces/inkscape"
   sodipodi:docname="gnome-fs-home.svg"
   sodipodi:docbase="/home/andy/Work/clients/Canonical/Humility/humility-icons/scalable/filesystems"
   inkscape:version="0.42+devel"
   sodipodi:version="0.32"
   version="1.0"
   x="0.0000000"
   y="0.0000000"
   width="128.00000"
   height="128.00000"
   id="svg4490">
  <metadata
     id="metadata1678">
    <rdf:RDF>
      <cc:Work
         rdf:about="">
        <dc:format>image/svg+xml</dc:format>
        <dc:type
           rdf:resource="http://purl.org/dc/dcmitype/StillImage" />
      </cc:Work>
    </rdf:RDF>
  </metadata>
  <sodipodi:namedview
     inkscape:current-layer="g2836"
     inkscape:window-y="49"
     inkscape:window-x="590"
     id="base"
     pagecolor="#ffffff"
     bordercolor="#666666"
     borderopacity="1.0"
     inkscape:pageopacity="0.0000000"
     inkscape:pageshadow="2"
     inkscape:window-width="768"
     inkscape:window-height="544"
     inkscape:cy="64.799223"
     inkscape:cx="62.372335"
     inkscape:zoom="2.8284271" />
  <defs
     id="defs3">
    <linearGradient
       id="linearGradient4168">
      <stop
         id="stop4170"
         offset="0"
         style="stop-color:#000000;stop-opacity:1;" />
      <stop
         id="stop4172"
         offset="1"
         style="stop-color:#000000;stop-opacity:0;" />
    </linearGradient>
    <linearGradient
       id="linearGradient4122"
       inkscape:collect="always">
      <stop
         id="stop4124"
         offset="0"
         style="stop-opacity:0.35164836;stop-color:#000000" />
      <stop
         id="stop4126"
         offset="1"
         style="stop-color:#000000;stop-opacity:0;" />
    </linearGradient>
    <linearGradient
       id="linearGradient2221">
      <stop
         style="stop-color:#ffffff;stop-opacity:1.0000000;"
         offset="0.0000000"
         id="stop2222" />
      <stop
         style="stop-color:#ffffff;stop-opacity:0.0000000;"
         offset="1.0000000"
         id="stop2224" />
    </linearGradient>
    <linearGradient
       inkscape:collect="always"
       xlink:href="#linearGradient2221"
       id="linearGradient2818"
       gradientUnits="userSpaceOnUse"
       gradientTransform="matrix(2.420081,0.000000,0.000000,2.420081,1.442331,5.994180)"
       x1="10.253048"
       y1="4.1896524"
       x2="10.253048"
       y2="35.459568" />
    <linearGradient
       inkscape:collect="always"
       xlink:href="#linearGradient2221"
       id="linearGradient2824"
       gradientUnits="userSpaceOnUse"
       gradientTransform="matrix(2.265106,0.000000,0.000000,2.265106,5.179658,12.00250)"
       x1="28.562500"
       y1="-2.0124540"
       x2="28.562500"
       y2="34.875542" />
    <linearGradient
       inkscape:collect="always"
       xlink:href="#linearGradient4122"
       id="linearGradient2827"
       gradientUnits="userSpaceOnUse"
       gradientTransform="matrix(2.420081,0.000000,0.000000,2.420081,2.652372,7.204220)"
       x1="5.0000000"
       y1="41.000000"
       x2="86.951530"
       y2="36.668972" />
    <linearGradient
       inkscape:collect="always"
       xlink:href="#linearGradient4122"
       id="linearGradient2832"
       gradientUnits="userSpaceOnUse"
       gradientTransform="matrix(2.487649,0.000000,0.000000,2.487649,5.020381,4.798815)"
       x1="-9.3591022"
       y1="16.183386"
       x2="47.152821"
       y2="16.183386" />
    <linearGradient
       inkscape:collect="always"
       xlink:href="#linearGradient4168"
       id="linearGradient3200"
       gradientUnits="userSpaceOnUse"
       gradientTransform="matrix(2.420081,0.000000,0.000000,2.420081,2.652372,7.204220)"
       x1="27.125000"
       y1="24.812500"
       x2="29.170282"
       y2="42.250000" />
  </defs>
  <g
     id="g2836">
    <path
       style="fill:none;fill-opacity:1.0000000;fill-rule:evenodd;stroke:#000000;stroke-width:3.5000000;stroke-linecap:butt;stroke-linejoin:miter;stroke-miterlimit:4.0000000;stroke-dasharray:none;stroke-opacity:0.60439563"
       d="M 19.458624,16.383854 C 14.618462,16.383854 9.7783003,21.224016 9.7783003,26.064178 L 9.7783003,102.33738 C 9.7783003,107.17754 12.198381,109.59762 17.038543,109.59762 L 105.93352,109.59762 C 109.56364,109.59762 113.19376,105.9675 113.19376,102.33738 L 111.4217,70.126326 L 111.4217,35.744502 C 111.4217,30.90434 106.58154,26.064178 101.74138,26.064178 L 65.440163,26.064178 C 58.17992,26.064178 58.17992,16.383854 50.919677,16.383854 L 19.458624,16.383854 z "
       id="path2910"
       sodipodi:nodetypes="cccccccccccc" />
    <path
       sodipodi:nodetypes="cccccccccccc"
       id="path2912"
       d="M 19.458624,16.884544 C 14.618462,16.884544 9.7783003,21.724706 9.7783003,26.564868 L 9.7783003,101.79775 C 9.7783003,106.63791 12.198381,109.05799 17.038543,109.05799 L 106.58154,109.05799 L 113.84178,101.79775 L 111.42170,67.916617 L 111.42170,36.245192 C 111.42170,31.405030 106.58154,26.564868 101.74138,26.564868 L 65.440163,26.564868 C 58.179920,26.564868 58.179920,16.884544 50.919677,16.884544 L 19.458624,16.884544 z "
       style="fill:#e3e3e3;fill-opacity:1.0000000;fill-rule:evenodd;stroke:none;stroke-width:1.0000000px;stroke-linecap:butt;stroke-linejoin:miter;stroke-opacity:1.0000000" />
    <path
       style="opacity:1.0000000;fill:url(#linearGradient2832);fill-opacity:1.0000000;fill-rule:evenodd;stroke:none;stroke-width:1.0000000px;stroke-linecap:butt;stroke-linejoin:miter;stroke-opacity:1.0000000"
       d="M 19.946273,19.724706 C 15.699583,19.903623 12.662239,22.831031 12.483327,27.187652 L 12.483327,104.30476 C 12.483327,109.28005 14.970975,111.76770 19.946273,111.76770 L 102.03868,111.76770 L 109.50162,104.30476 L 109.50162,37.138246 C 107.01397,34.650597 106.50524,29.634339 102.03868,29.675300 L 65.607375,29.675300 C 54.045033,29.656623 58.423941,19.743383 49.060407,19.724706 L 19.946273,19.724706 z "
       id="path2914"
       sodipodi:nodetypes="ccccccccccc" />
    <path
       style="fill:#c17d11;fill-opacity:1.0000000;fill-rule:evenodd;stroke:none;stroke-width:1.0000000px;stroke-linecap:butt;stroke-linejoin:miter;stroke-opacity:1.0000000"
       d="M 24.433004,45.925516 C 19.592842,45.925516 14.752680,50.765678 14.752680,55.605840 L 14.752680,111.26770 L 106.71576,111.26770 C 113.97600,111.26770 116.39608,106.42754 116.39608,101.58738 L 116.39608,45.925516 C 116.39608,41.085354 111.55592,36.245192 106.71576,36.245192 L 80.094867,36.245192 C 72.834624,36.245192 72.834624,45.925516 65.574381,45.925516 L 24.433004,45.925516 z "
       id="path2916"
       sodipodi:nodetypes="cccccccccc" />
    <path
       sodipodi:nodetypes="cccccccccc"
       id="path2918"
       d="M 24.433004,45.925516 C 19.592842,45.925516 14.752680,50.765678 14.752680,55.605840 L 14.752680,111.26770 L 106.71576,111.26770 C 113.97600,111.26770 116.39608,106.42754 116.39608,101.58738 L 116.39608,45.925516 C 116.39608,41.085354 111.55592,36.245192 106.71576,36.245192 L 80.094867,36.245192 C 72.834624,36.245192 72.834624,45.925516 65.574381,45.925516 L 24.433004,45.925516 z "
       style="fill:#3c3c3c;fill-opacity:0.11764706;fill-rule:evenodd;stroke:none;stroke-width:1.0000000px;stroke-linecap:butt;stroke-linejoin:miter;stroke-opacity:1.0000000" />
    <path
       sodipodi:nodetypes="ccccc"
       id="path2920"
       d="M 14.752680,101.58738 L 14.752680,111.26770 L 106.71576,111.26770 C 111.55592,111.26770 116.39608,108.84762 116.39608,101.58738 L 14.752680,101.58738 z "
       style="fill:url(#linearGradient2827);fill-opacity:1.0000000;fill-rule:evenodd;stroke:none;stroke-width:1.0000000px;stroke-linecap:butt;stroke-linejoin:miter;stroke-opacity:1.0000000" />
    <path
       style="fill:url(#linearGradient2824);fill-opacity:1;fill-rule:evenodd;stroke:none;stroke-width:1px;stroke-linecap:butt;stroke-linejoin:miter;stroke-opacity:1"
       d="M 25.064827,48.244187 C 20.534616,48.244187 17.25613,51.522673 17.25613,56.052885 L 17.25613,95.811404 C 44.437396,67.497585 105.3329,91.281193 114.39332,61.834821 L 114.39332,48.244187 C 114.39332,43.713976 109.86311,39.183765 105.3329,39.183765 L 80.416739,39.183765 C 73.621423,39.183765 73.621423,48.244187 66.826106,48.244187 L 25.064827,48.244187 z "
       id="path2922"
       sodipodi:nodetypes="ccccccccc" />
    <path
       style="stroke-miterlimit:4.0000000;stroke-dasharray:none;opacity:0.83333331;fill:none;fill-opacity:0.54395604;fill-rule:evenodd;stroke:url(#linearGradient3200);stroke-width:2.0000000;stroke-linecap:round;stroke-linejoin:miter;stroke-opacity:0.67582417"
       d="M 113.59880,108.24260 C 115.11135,106.42754 115.71637,104.00746 115.71637,101.58738 L 115.71637,46.428450 C 115.71637,40.378247 112.08625,36.748126 106.03605,36.748126 L 81.304908,36.748126 C 71.624584,36.748126 75.254705,46.428450 65.574381,46.428450 L 23.725897,46.428450 C 18.885735,46.428450 15.255614,51.268612 15.255614,54.898733 L 15.255614,110.72497"
       id="path2924"
       sodipodi:nodetypes="ccccccccc" />
    <path
       sodipodi:nodetypes="cccccccc"
       id="path2926"
       d="M 112.55592,101.58738 L 112.55592,47.345597 C 112.55592,42.505435 110.13584,40.085354 105.29568,40.085354 L 81.514948,40.085354 C 74.254705,40.085354 77.674786,49.765678 65.574381,49.765678 L 26.604465,49.765678 C 21.764303,49.765678 19.344222,52.185759 19.344222,57.025921 L 19.344222,104.00746"
       style="fill:none;fill-opacity:1.0000000;fill-rule:evenodd;stroke:url(#linearGradient2818);stroke-width:2.9040973;stroke-linecap:round;stroke-linejoin:miter;stroke-miterlimit:4.0000000;stroke-dasharray:none;stroke-opacity:1.0000000" />
    <path
       sodipodi:nodetypes="cccccccccccc"
       id="path1705"
       d="M 70.128402,61.86696 L 43.594607,80.831983 L 51.637664,80.831983 L 51.637664,101.61185 L 66.612971,101.61185 L 66.612971,87.002423 L 77.871624,87.002423 L 77.871624,101.61185 L 88.702061,101.61185 L 88.702061,80.831983 L 96.745117,80.831983 L 70.128402,61.86696 z "
       style="opacity:1;fill:#ffffff;fill-opacity:1;stroke-width:3.4027472;stroke-linecap:round;stroke-linejoin:round;stroke-miterlimit:4;stroke-dasharray:none;stroke-dashoffset:0;stroke-opacity:1" />
  </g>
</svg>
