/* XPM */
static char * maximize_toggled_inactive_xpm[] = {
"10 10 29 1",
" 	c None",
".	c #5A78A1",
"+	c #7F8DBB",
"@	c #8E96C5",
"#	c #EEF0F6",
"$	c #FFFFFF",
"%	c #F7F8F9",
"&	c #EBEDEE",
"*	c #EDEDED",
"=	c #EAECEE",
"-	c #EAECF3",
";	c #DCE1E5",
">	c #A4ABB1",
",	c #A9AAAA",
"'	c #A5A6A6",
")	c #919BA3",
"!	c #D7DCE0",
"~	c #D3D4D4",
"{	c #C1C2C2",
"]	c #BCC0C3",
"^	c #BDC0C2",
"/	c #98A0A6",
"(	c #ADAEAE",
"_	c #AEAFAF",
":	c #9FA5A9",
"<	c #A6A7A7",
"[	c #D0D0D0",
"}	c #D4D4D4",
"|	c #CCCDCD",
".+@@@@@@+.",
"+#$%&**=-+",
"@$$;>,')=@",
"@%!~{]^'*@",
"@&/(_:],*@",
"@*<[}_{>&@",
"@*'|[(~;%@",
"@=)'</!$$@",
"+-=**&%$#+",
".+@@@@@@+."};
