/* XPM */
static char * hide_active_xpm[] = {
"9 9 4 1",
" 	c None",
".	c #F7F7F7",
"+	c #000000",
"@	c #CFCFCF",
".........",
".+++++++.",
".+@@@@@+.",
".+@@@@@+.",
".+@@@@@+.",
".+++++++.",
".+@@@@@+.",
".+++++++.",
"........."};
