/* XPM */
static char * maximize_inactive_xpm[] = {
"10 10 16 1",
" 	c None",
".	c #627CA7",
"+	c #808EBA",
"@	c #8E97C5",
"#	c #EBECF5",
"$	c #FFFFFF",
"%	c #DCE1E6",
"&	c #C4C8CB",
"*	c #CACACA",
"=	c #9C9FA1",
"-	c #B4B5B5",
";	c #C4C7CB",
">	c #C9CACA",
",	c #EEEEEE",
"'	c #B5B5B5",
")	c #8F97C5",
".+@@@@@@+.",
"+#$$$$$$#+",
"@$%&**&%$@",
"@$&=--=;$@",
"@$>-,,'>$@",
"@$*',,'*$@",
"@$&=''=;$@",
"@$%;>>;%$@",
"+#$$$$$$#+",
".+))))))+."};
