/* XPM */
static char * close_inactive_xpm[] = {
"9 9 5 1",
" 	c None",
".	c #F7F7F7",
"+	c #000000",
"@	c #CFCFCF",
"#	c #8C0202",
".........",
".+++++++.",
".+@@@@@+.",
".+@###@+.",
".+@###@+.",
".+@###@+.",
".+@@@@@+.",
".+++++++.",
"........."};
