<?xml version="1.0" encoding="UTF-8" standalone="no"?>
<!-- Made by Andrew Fitzsimon (andrew@fitzsimon.com.au)-->
<!-- Created with Inkscape (http://www.inkscape.org/) -->
<svg
   xmlns:dc="http://purl.org/dc/elements/1.1/"
   xmlns:cc="http://web.resource.org/cc/"
   xmlns:rdf="http://www.w3.org/1999/02/22-rdf-syntax-ns#"
   xmlns:svg="http://www.w3.org/2000/svg"
   xmlns="http://www.w3.org/2000/svg"
   xmlns:xlink="&amp;#38;#38;#38;#38;ns_xlink;"
   xmlns:sodipodi="http://inkscape.sourceforge.net/DTD/sodipodi-0.dtd"
   xmlns:inkscape="http://www.inkscape.org/namespaces/inkscape"
   sodipodi:docname="gtk-cut.svg"
   sodipodi:docbase="/home/andy/Desktop/Work/clients/Canonical/Humility/humility-icons/scalable/stock"
   inkscape:version="0.41+cvs"
   sodipodi:version="0.32"
   id="UbuntuIcon"
   height="128.0px"
   width="128.0px">
  <defs
     id="defs3">
    <linearGradient
       id="linearGradient3970">
      <stop
         id="stop3971"
         offset="0.0000000"
         style="stop-color:#ffffff;stop-opacity:1.0000000;" />
      <stop
         id="stop3972"
         offset="1.0000000"
         style="stop-color:#ffffff;stop-opacity:0.0000000;" />
    </linearGradient>
    <linearGradient
       gradientUnits="userSpaceOnUse"
       y2="61.201187"
       x2="73.967102"
       y1="71.153831"
       x1="62.581360"
       gradientTransform="scale(0.907927,1.101411)"
       id="linearGradient203"
       xlink:href="#linearGradient3970"
       inkscape:collect="always" />
    <linearGradient
       y2="770.24116"
       x2="-68.033922"
       y1="850.16606"
       x1="-140.07748"
       gradientTransform="matrix(0.588289,-4.618913e-17,5.463783e-17,0.520479,169.5319,-352.0899)"
       gradientUnits="userSpaceOnUse"
       id="linearGradient2"
       xlink:href="#linearGradient924"
       inkscape:collect="always" />
    <linearGradient
       y2="945.56316"
       x2="-159.46551"
       y1="859.05705"
       x1="-159.08747"
       gradientTransform="matrix(0.588289,-4.618913e-17,5.463783e-17,0.520479,169.5319,-352.0899)"
       gradientUnits="userSpaceOnUse"
       id="linearGradient1"
       xlink:href="#linearGradient924"
       inkscape:collect="always" />
    <linearGradient
       y2="752.38951"
       x2="-276.59079"
       y1="844.92277"
       x1="-206.25452"
       gradientTransform="matrix(0.580941,-4.561226e-17,5.532885e-17,0.527062,169.5319,-352.0899)"
       gradientUnits="userSpaceOnUse"
       id="linearGradient5"
       xlink:href="#linearGradient924"
       inkscape:collect="always" />
    <linearGradient
       id="linearGradient924">
      <stop
         id="stop925"
         offset="0.00000000"
         style="stop-color:#ffffff;stop-opacity:0.00000000;" />
      <stop
         id="stop926"
         offset="1.00000000"
         style="stop-color:#ffffff;stop-opacity:1;" />
    </linearGradient>
    <linearGradient
       y2="935.02544"
       x2="-197.61969"
       y1="841.06058"
       x1="-205.62921"
       gradientTransform="matrix(0.580941,-4.561226e-17,5.532885e-17,0.527062,169.5319,-352.0899)"
       gradientUnits="userSpaceOnUse"
       id="linearGradient4"
       xlink:href="#linearGradient924"
       inkscape:collect="always" />
    <linearGradient
       id="linearGradient3658">
      <stop
         id="stop3659"
         offset="0.0000000"
         style="stop-color:#000000;stop-opacity:0.56774193;" />
      <stop
         id="stop3660"
         offset="1.0000000"
         style="stop-color:#000000;stop-opacity:0.0000000;" />
    </linearGradient>
    <linearGradient
       y2="631.40373"
       x2="-192.35384"
       y1="589.75158"
       x1="-240.79978"
       gradientTransform="matrix(0.466594,-3.663435e-17,6.888818e-17,0.656227,169.5319,-352.0899)"
       gradientUnits="userSpaceOnUse"
       id="linearGradient12"
       xlink:href="#linearGradient3658"
       inkscape:collect="always" />
    <linearGradient
       y2="61.201187"
       x2="73.967102"
       y1="71.153831"
       x1="62.581360"
       gradientTransform="matrix(1.493066,0.000000,0.000000,1.811246,-44.81394,-44.09852)"
       gradientUnits="userSpaceOnUse"
       id="linearGradient22563"
       xlink:href="#linearGradient3970"
       inkscape:collect="always" />
    <linearGradient
       y2="945.56316"
       x2="-159.46551"
       y1="859.05705"
       x1="-159.08747"
       gradientTransform="matrix(0.967428,-7.595701e-17,8.985071e-17,0.855916,233.9775,-623.1026)"
       gradientUnits="userSpaceOnUse"
       id="linearGradient22566"
       xlink:href="#linearGradient924"
       inkscape:collect="always" />
    <linearGradient
       y2="770.24116"
       x2="-68.033922"
       y1="850.16606"
       x1="-140.07748"
       gradientTransform="matrix(0.967428,-7.595701e-17,8.985071e-17,0.855916,233.9775,-623.1026)"
       gradientUnits="userSpaceOnUse"
       id="linearGradient22568"
       xlink:href="#linearGradient924"
       inkscape:collect="always" />
    <linearGradient
       y2="935.02544"
       x2="-197.61969"
       y1="841.06058"
       x1="-205.62921"
       gradientTransform="matrix(0.955345,-7.500836e-17,9.098708e-17,0.866742,233.9775,-623.1026)"
       gradientUnits="userSpaceOnUse"
       id="linearGradient22573"
       xlink:href="#linearGradient924"
       inkscape:collect="always" />
    <linearGradient
       y2="752.38951"
       x2="-276.59079"
       y1="844.92277"
       x1="-206.25452"
       gradientTransform="matrix(0.955345,-7.500836e-17,9.098708e-17,0.866742,233.9775,-623.1026)"
       gradientUnits="userSpaceOnUse"
       id="linearGradient22575"
       xlink:href="#linearGradient924"
       inkscape:collect="always" />
    <linearGradient
       y2="631.40373"
       x2="-192.35384"
       y1="589.75158"
       x1="-240.79978"
       gradientTransform="matrix(0.767304,-6.024438e-17,1.132851e-16,1.079151,233.9775,-623.1026)"
       gradientUnits="userSpaceOnUse"
       id="linearGradient22579"
       xlink:href="#linearGradient3658"
       inkscape:collect="always" />
  </defs>
  <sodipodi:namedview
     inkscape:window-y="25"
     inkscape:window-x="0"
     inkscape:window-height="544"
     inkscape:window-width="762"
     borderlayer="top"
     showborder="true"
     gridopacity="0.08"
     gridcolor="#3f3fff"
     gridempopacity="0.15"
     gridempcolor="#3f3fff"
     gridempspacing="8"
     showgrid="true"
     gridspacingy="4.0px"
     gridspacingx="4.0px"
     inkscape:showpageshadow="false"
     inkscape:current-layer="layer1"
     inkscape:document-units="px"
     inkscape:cy="27.197722"
     inkscape:cx="87.627111"
     inkscape:zoom="1.0000000"
     inkscape:pageshadow="2"
     inkscape:pageopacity="0.0"
     borderopacity="1.0"
     bordercolor="#666666"
     pagecolor="#ffffff"
     id="base"
     inkscape:grid-points="true"
     inkscape:grid-bbox="false"
     gridtolerance="2.0px"
     showguides="true"
     inkscape:guide-bbox="true" />
  <metadata
     id="metadata4">
    <rdf:RDF
       id="RDF5">
      <cc:Work
         id="Work6"
         rdf:about="">
        <dc:format
           id="format7">image/svg+xml</dc:format>
        <dc:type
           rdf:resource="http://purl.org/dc/dcmitype/StillImage"
           id="type9" />
        <dc:title
           id="title3941">Ubuntu Icon</dc:title>
        <dc:date
           id="date3943">2005-06-28</dc:date>
        <dc:creator
           id="creator3945">
          <cc:Agent
             id="Agent3947">
            <dc:title
               id="title3949">andrew@fitzsimon.com.au</dc:title>
          </cc:Agent>
        </dc:creator>
        <dc:rights
           id="rights3951">
          <cc:Agent
             id="Agent3953">
            <dc:title
               id="title3955">Andrew Fitzsimon</dc:title>
          </cc:Agent>
        </dc:rights>
        <dc:publisher
           id="publisher3957">
          <cc:Agent
             id="Agent3959">
            <dc:title
               id="title3961">Cannonical</dc:title>
          </cc:Agent>
        </dc:publisher>
        <dc:identifier
           id="identifier3963" />
        <dc:relation
           id="relation3965">http://andy.fitzsimon.com.au</dc:relation>
        <dc:language
           id="language3967" />
        <dc:subject
           id="subject3969">
          <rdf:Bag
             id="Bag3971">
            <rdf:li
               id="li4623">Ubuntu</rdf:li>
            <rdf:li
               id="li4625">SVG</rdf:li>
            <rdf:li
               id="li4627">Etiquette</rdf:li>
            <rdf:li
               id="li4629">AndyFitz</rdf:li>
            <rdf:li
               id="li4631">Breezy</rdf:li>
            <rdf:li
               id="li4633">GNOME</rdf:li>
            <rdf:li
               id="li4635">Inkscape</rdf:li>
          </rdf:Bag>
        </dc:subject>
        <dc:coverage
           id="coverage4637">Ubuntu Icon theme</dc:coverage>
        <dc:contributor
           id="contributor4639">
          <cc:Agent
             id="Agent4641">
            <dc:title
               id="title4643">Andrew Fitzsimon</dc:title>
          </cc:Agent>
        </dc:contributor>
        <cc:license
           rdf:resource="http://creativecommons.org/licenses/GPL/2.0/"
           id="license4645" />
      </cc:Work>
      <cc:License
         id="License4661"
         rdf:about="http://creativecommons.org/licenses/GPL/2.0/">
        <cc:permits
           id="permits4663"
           rdf:resource="http://web.resource.org/cc/Reproduction" />
        <cc:permits
           id="permits4665"
           rdf:resource="http://web.resource.org/cc/Distribution" />
        <cc:requires
           id="requires4667"
           rdf:resource="http://web.resource.org/cc/Notice" />
        <cc:permits
           id="permits4669"
           rdf:resource="http://web.resource.org/cc/DerivativeWorks" />
        <cc:requires
           id="requires4671"
           rdf:resource="http://web.resource.org/cc/ShareAlike" />
        <cc:requires
           id="requires4673"
           rdf:resource="http://web.resource.org/cc/SourceCode" />
      </cc:License>
    </rdf:RDF>
  </metadata>
  <g
     id="layer1"
     inkscape:groupmode="layer"
     inkscape:label="Icon">
    <path
       sodipodi:nodetypes="cccccccccccccc"
       id="path3996"
       d="M 113.48477,7.6000000e-06 C 114.91639,10.687824 110.54934,36.515415 94.348758,52.283004 L 65.396946,86.223918 C 58.816359,93.610762 53.366258,81.852254 49.887223,110.50869 C 49.226952,122.88334 35.730147,129.03495 25.772241,126.76741 C 14.368019,124.17050 8.9824707,111.91021 10.833796,103.78010 C 13.173326,93.506069 23.177648,86.440790 31.224072,88.130432 C 39.560118,89.886027 43.349523,97.290234 45.362966,94.245362 L 113.48477,7.6000000e-06 z M 33.274060,95.260811 C 26.559434,93.731795 19.867613,97.941277 18.338598,104.65589 C 16.809574,111.37055 21.019056,118.06238 27.733662,119.59138 C 34.448296,121.12039 41.140154,116.91093 42.669170,110.19630 C 44.198174,103.48167 39.988694,96.789825 33.274060,95.260811 z "
       style="fill:#919191;fill-opacity:1.0000000;fill-rule:evenodd;stroke:none;stroke-width:2.0000000;stroke-linecap:butt;stroke-linejoin:miter;stroke-miterlimit:4.0000000;stroke-opacity:1.0000000" />
    <path
       sodipodi:nodetypes="ccccc"
       id="path3997"
       d="M 54.786958,82.926358 L 112.40470,5.0987889 C 112.40470,5.0987889 110.17964,33.356989 93.936744,50.267411 C 77.693843,67.177825 66.150551,84.088247 64.105196,86.133603 L 54.786958,82.926358 z "
       style="fill:url(#linearGradient22579)" />
    <path
       sodipodi:nodetypes="ccccccccccccc"
       id="path3998"
       d="M 65.396946,86.223918 C 58.816359,93.610762 53.366258,81.852254 49.887223,110.50869 C 49.226952,122.88334 35.730147,129.03495 25.772241,126.76741 C 14.368019,124.17050 8.9824707,111.91021 10.833796,103.78010 C 13.173326,93.506069 23.177648,86.440790 31.224072,88.130432 C 39.560118,89.886027 43.349523,97.290234 45.362966,94.245362 L 58.428022,77.061778 L 65.396946,86.223918 z M 33.274060,95.260811 C 26.559434,93.731795 19.867613,97.941277 18.338598,104.65589 C 16.809574,111.37055 21.019056,118.06238 27.733662,119.59138 C 34.448296,121.12039 41.140154,116.91093 42.669170,110.19630 C 44.198174,103.48167 39.988694,96.789825 33.274060,95.260811 z "
       style="fill:#2f2f2f;fill-opacity:1.0000000;fill-rule:evenodd;stroke:none;stroke-width:2.0000000;stroke-linecap:butt;stroke-linejoin:miter;stroke-miterlimit:4.0000000;stroke-opacity:1.0000000" />
    <path
       id="path3999"
       d="M 57.386630,79.631428 C 53.519724,84.673655 49.724277,89.794767 45.813009,94.788039 C 43.195074,96.914863 40.702534,93.531549 38.441862,92.393092 C 34.399195,89.315507 28.876742,87.710419 23.989929,89.624641 C 15.155057,92.844098 9.0655234,103.25644 12.112670,112.46973 C 13.475435,117.33727 17.022133,121.45231 21.230487,124.12589 C 25.452826,126.77758 30.654770,126.69343 35.375606,125.70602 C 39.808721,124.31282 44.129873,122.04572 46.641915,117.96647 C 49.329924,113.77447 49.171637,108.53168 50.190596,103.78688 C 50.844535,99.536929 52.097221,95.410901 54.116442,91.631596 C 56.602886,88.365275 61.249596,89.007192 64.126061,86.313986 C 63.079920,83.463155 60.477819,81.405360 58.893759,78.806773 C 58.001202,78.022054 57.942437,79.140457 57.386630,79.631428 z M 30.770145,94.219311 C 38.603053,94.217609 45.259568,102.28864 43.377978,109.99317 C 42.171072,117.57174 33.285034,122.66257 26.113824,119.81419 C 18.887653,117.50813 14.873805,107.94758 19.003410,101.36379 C 20.873953,97.296157 25.227100,94.608284 29.656083,94.371420 C 30.027586,94.326577 30.397713,94.250358 30.770145,94.219311 z "
       style="fill:url(#linearGradient22573);fill-opacity:1.0000000;fill-rule:evenodd;stroke:url(#linearGradient22575);stroke-width:1.1374567;stroke-linecap:butt;stroke-linejoin:miter;stroke-miterlimit:4.0000000;stroke-opacity:1.0000000" />
    <path
       sodipodi:nodetypes="cccccccccccccc"
       id="path4000"
       d="M 14.336707,1.0509639 C 12.905095,11.738778 17.272146,37.566371 33.472723,53.333968 L 62.424544,87.274872 C 69.005132,94.661716 74.455231,82.903209 77.934266,111.55965 C 78.594527,123.93431 92.091324,130.08591 102.04923,127.81837 C 113.45345,125.22146 118.83900,112.96116 116.98767,104.83105 C 114.64814,94.557026 104.64382,87.491745 96.597400,89.181387 C 88.261362,90.936984 84.471967,98.341188 82.458522,95.296317 L 14.336707,1.0509639 z M 94.547412,96.311766 C 101.26204,94.782752 107.95386,98.992232 109.48287,105.70685 C 111.01190,112.42150 106.80242,119.11333 100.08781,120.64234 C 93.373174,122.17135 86.681326,117.96189 85.152320,111.24725 C 83.623314,104.53262 87.832787,97.840780 94.547412,96.311766 z "
       style="fill:#a5a5a5;fill-opacity:1.0000000;fill-rule:evenodd;stroke:none;stroke-width:0.62500000;stroke-linecap:butt;stroke-linejoin:miter;stroke-miterlimit:4.0000000;stroke-opacity:0.056603733" />
    <path
       sodipodi:nodetypes="ccccccccccccc"
       id="path4001"
       d="M 62.424544,87.274872 C 69.005132,94.661716 74.455231,82.903209 77.934266,111.55965 C 78.594527,123.93431 92.091324,130.08591 102.04923,127.81837 C 113.45345,125.22146 118.83900,112.96116 116.98767,104.83105 C 114.64814,94.557026 104.64382,87.491745 96.597400,89.181387 C 88.261362,90.936984 84.471967,98.341188 82.458522,95.296317 L 71.099652,79.534553 L 62.424544,87.274872 z M 94.547412,96.311766 C 101.26204,94.782752 107.95386,98.992232 109.48287,105.70685 C 111.01190,112.42150 106.80242,119.11333 100.08781,120.64234 C 93.373174,122.17135 86.681326,117.96189 85.152320,111.24725 C 83.623314,104.53262 87.832787,97.840780 94.547412,96.311766 z "
       style="fill:#2f2f2f;fill-opacity:1.0000000;fill-rule:evenodd;stroke:none;stroke-width:2.0000000;stroke-linecap:butt;stroke-linejoin:miter;stroke-miterlimit:4.0000000;stroke-opacity:0.57232702" />
    <path
       id="path4006"
       d="M 64.182933,87.252388 C 67.148620,89.733027 71.801182,89.298518 74.015246,92.817518 C 78.573953,99.897157 77.756741,108.84998 80.499457,116.52327 C 83.371691,123.93403 92.018718,127.63646 99.625319,126.91558 C 110.55404,126.09441 118.50612,113.93952 115.39530,103.55359 C 113.92264,99.160313 110.95062,95.312706 107.07161,92.772892 C 102.46149,89.464332 95.840062,89.416950 91.213672,92.756932 C 88.831947,94.035351 86.583868,95.877604 84.202171,96.949207 C 80.350124,96.316298 79.170553,92.007958 76.846001,89.410998 C 74.871458,86.681958 72.896915,83.952908 70.922364,81.223868 C 68.675887,83.233372 66.429410,85.242885 64.182933,87.252388 z M 96.998558,94.901784 C 104.97378,94.629986 112.16226,102.55800 110.65272,110.50401 C 109.76979,118.18326 101.16384,123.67461 93.836501,121.49805 C 86.528798,119.75009 81.977514,111.18922 84.560261,104.15649 C 86.271404,99.055375 91.189748,95.386050 96.534868,94.977121 C 96.696832,95.038251 96.841071,94.892894 96.998558,94.901784 z "
       style="fill:url(#linearGradient22566);fill-opacity:1.0000000;fill-rule:evenodd;stroke:url(#linearGradient22568);stroke-width:1.1374567;stroke-linecap:butt;stroke-linejoin:miter;stroke-miterlimit:4.0000000;stroke-opacity:0.57232702" />
    <path
       sodipodi:nodetypes="cccccccc"
       id="path195"
       d="M 15.672016,11.197053 C 18.007229,21.005262 19.702879,31.209595 25.125507,39.904320 C 33.742378,52.952099 44.747070,64.222169 54.853607,76.124272 C 58.296741,79.863629 58.948604,81.294406 62.589123,84.766394 L 69.408499,80.194576 C 66.230419,75.754424 65.540843,74.048579 62.288857,69.673620 C 46.715650,48.142963 31.142443,26.612307 15.569237,5.0816502 C 15.603496,7.1201172 15.637757,9.1585858 15.672016,11.197053 z "
       style="opacity:0.69230771;fill:url(#linearGradient22563);fill-opacity:1.0000000;fill-rule:evenodd;stroke:none;stroke-width:0.62500000;stroke-linecap:butt;stroke-linejoin:miter;stroke-miterlimit:4.0000000;stroke-opacity:0.056603733" />
  </g>
  <g
     inkscape:label="Palette"
     id="layer2"
     inkscape:groupmode="layer" />
</svg>
