/* XPM */
static char * close_active_xpm[] = {
"9 9 30 1",
" 	c None",
".	c #CAC6C6",
"+	c #7B6262",
"@	c #ADA0A0",
"#	c #EEEDED",
"$	c #7B6161",
"%	c #CAC5C5",
"&	c #B55454",
"*	c #A45E5E",
"=	c #AD9C9C",
"-	c #B95555",
";	c #9A5353",
">	c #9B5353",
",	c #AC9B9B",
"'	c #954949",
")	c #B73F3F",
"!	c #EDECEC",
"~	c #A68F8F",
"{	c #841E1E",
"]	c #A40E0E",
"^	c #A89797",
"/	c #913535",
"(	c #9E1414",
"_	c #821A1A",
":	c #715454",
"<	c #A83939",
"[	c #964040",
"}	c #A79090",
"|	c #C8C3C3",
"1	c #A89898",
"         ",
" .+@##@$%",
" +&*==*&$",
" @*-;>-*@",
" #,'))',#",
" !~{]]{~!",
" ^/(__(/^",
" :<[}}[<:",
" |:1!!1:|"};
