/* XPM */
static char * close_pressed_xpm[] = {
"9 9 30 1",
" 	c None",
".	c #7F7F7F",
"+	c #CBC6C6",
"@	c #7C6262",
"#	c #ADA0A0",
"$	c #EDECEC",
"%	c #7B6262",
"&	c #B55454",
"*	c #A45E5E",
"=	c #AD9C9C",
"-	c #B85555",
";	c #9A5353",
">	c #B95555",
",	c #AC9B9B",
"'	c #954949",
")	c #B73F3F",
"!	c #A68F8F",
"~	c #831E1E",
"{	c #A40E0E",
"]	c #A89696",
"^	c #913535",
"/	c #9E1313",
"(	c #821A1A",
"_	c #715454",
":	c #A73939",
"<	c #964040",
"[	c #A79090",
"}	c #C8C3C3",
"|	c #715555",
"1	c #A89898",
".........",
".+@#$$#%+",
".@&*==*&%",
".#*-;;>*#",
".$,'))',$",
".$!~{{~!$",
".]^/((/^]",
"._:<[[<:_",
".}|1$$1|}"};
