/* XPM */
static char * maximize_pressed_xpm[] = {
"9 9 5 1",
" 	c None",
".	c #7F7F7F",
"+	c #000000",
"@	c #F7F7F7",
"#	c #CFCFCF",
".........",
".+++++++@",
".+##+##+@",
".+##+##+@",
".++++##+@",
".+#####+@",
".+#####+@",
".+++++++@",
".@@@@@@@@"};
